<svg width="64" height="64" viewBox="0 0 64 64" fill="none" xmlns="http://www.w3.org/2000/svg">
<rect x="1" y="1" width="62" height="62" rx="31" stroke="#444444" stroke-width="2"/>
<g clip-path="url(#clip0_164_2796)">
<path d="M22.4407 30.9407C21.8547 31.5267 21.8547 32.4782 22.4407 33.0642L29.9407 40.5642C30.5266 41.1501 31.4782 41.1501 32.0641 40.5642C32.65 39.9782 32.65 39.0267 32.0641 38.4407L27.1188 33.5001H41.5C42.3297 33.5001 43 32.8298 43 32.0001C43 31.1704 42.3297 30.5001 41.5 30.5001H27.1235L32.0594 25.5595C32.6454 24.9735 32.6454 24.022 32.0594 23.436C31.4735 22.8501 30.5219 22.8501 29.936 23.436L22.436 30.936L22.4407 30.9407Z" fill="white"/>
</g>
<defs>
<clipPath id="clip0_164_2796">
<rect width="21" height="24" fill="white" transform="translate(22 20)"/>
</clipPath>
</defs>
</svg>
