<svg width="64" height="64" viewBox="0 0 64 64" fill="none" xmlns="http://www.w3.org/2000/svg">
<rect x="63" y="63" width="62" height="62" rx="31" transform="rotate(-180 63 63)" stroke="#444444" stroke-width="2"/>
<g clip-path="url(#clip0_164_2797)">
<path d="M41.5593 33.0593C42.1453 32.4733 42.1453 31.5218 41.5593 30.9358L34.0593 23.4358C33.4734 22.8499 32.5218 22.8499 31.9359 23.4358C31.35 24.0218 31.35 24.9733 31.9359 25.5593L36.8812 30.4999H22.5C21.6703 30.4999 21 31.1702 21 31.9999C21 32.8296 21.6703 33.4999 22.5 33.4999H36.8765L31.9406 38.4405C31.3546 39.0265 31.3546 39.978 31.9406 40.564C32.5265 41.1499 33.4781 41.1499 34.064 40.564L41.564 33.064L41.5593 33.0593Z" fill="white"/>
</g>
<defs>
<clipPath id="clip0_164_2797">
<rect width="21" height="24" fill="white" transform="matrix(-1 0 0 -1 42 44)"/>
</clipPath>
</defs>
</svg>
